# xmcd CD database file
#
# Track frame offsets:
#	183
#	19245
#	37935
#	56768
#	86793
#	103245
#	122495
#	136608
#	152458
#	167808
#	181673
#	202295
#	220503
#	232393
#	245890
#
# Disc length: 3489 seconds
#
# Revision: 5
# Processed by: cddbd v1.5.2PL0 Copyright (c) Steve Scherf et al.
# Submitted via: CDex 1.70beta2
#
DISCID=d10d9f0f
DTITLE=이문세 - 이문세 골든베스트 15
DYEAR=1987
DGENRE=Pop
TTITLE0=사랑이 지나가면
TTITLE1=이별이야기
TTITLE2=난 아직 모르잖아요
TTITLE3=그녀의 웃음소리뿐
TTITLE4=소녀
TTITLE5=밤이 머무는 곳에
TTITLE6=하얀느낌
TTITLE7=나는 행복산 사람
TTITLE8=그대 나를 보면
TTITLE9=깊은밤을 날아서
TTITLE10=휘파람
TTITLE11=굿바이
TTITLE12=파랑새
TTITLE13=할말을 하지못했죠
TTITLE14=나는 너를
EXTD=YEAR: 1987
EXTT0=
EXTT1=
EXTT2=
EXTT3=
EXTT4=
EXTT5=
EXTT6=
EXTT7=
EXTT8=
EXTT9=
EXTT10=
EXTT11=
EXTT12=
EXTT13=
EXTT14=
PLAYORDER=
